<svg width="800" height="800" viewBox="0 0 800 800" fill="none" xmlns="http://www.w3.org/2000/svg">
<g clip-path="url(#clip0_1_2)">
<g clip-path="url(#clip1_1_2)">
<path fill-rule="evenodd" clip-rule="evenodd" d="M0 0H50V750H800V800H0V0ZM740.85 155.65C743.393 157.73 745.5 160.292 747.052 163.187C748.604 166.083 749.57 169.255 749.895 172.525C750.221 175.794 749.898 179.095 748.947 182.239C747.995 185.384 746.433 188.31 744.35 190.85L519.35 465.85C517.139 468.549 514.386 470.756 511.271 472.327C508.155 473.899 504.745 474.801 501.26 474.975C497.775 475.149 494.292 474.592 491.035 473.339C487.778 472.086 484.82 470.165 482.35 467.7L353 338.35L170.2 589.7C166.201 594.785 160.387 598.122 153.979 599.009C147.571 599.897 141.069 598.266 135.839 594.46C130.608 590.654 127.057 584.968 125.931 578.598C124.804 572.228 126.191 565.669 129.8 560.3L329.8 285.3C331.923 282.376 334.654 279.946 337.806 278.179C340.959 276.412 344.456 275.35 348.059 275.065C351.661 274.779 355.282 275.279 358.673 276.528C362.064 277.777 365.144 279.746 367.7 282.3L498.15 412.8L705.65 159.15C707.73 156.607 710.292 154.5 713.187 152.948C716.083 151.396 719.255 150.43 722.525 150.105C725.794 149.779 729.095 150.102 732.239 151.053C735.384 152.005 738.31 153.567 740.85 155.65Z" fill="#262626"/>
</g>
</g>
<defs>
<clipPath id="clip0_1_2">
<rect width="800" height="800" fill="white"/>
</clipPath>
<clipPath id="clip1_1_2">
<rect width="800" height="800" fill="white"/>
</clipPath>
</defs>
</svg>
