<svg width="800" height="800" viewBox="0 0 800 800" fill="none" xmlns="http://www.w3.org/2000/svg">
<g clip-path="url(#clip0_1_2)">
<g clip-path="url(#clip1_1_2)">
<path fill-rule="evenodd" clip-rule="evenodd" d="M25 300C21.2592 300.001 17.5663 300.842 14.1937 302.461C10.8211 304.079 7.85473 306.434 5.51317 309.351C3.17161 312.269 1.51459 315.674 0.664268 319.317C-0.186058 322.96 -0.208021 326.747 0.6 330.4L83.2 702.1C89.3656 729.862 104.814 754.693 126.994 772.492C149.174 790.29 176.761 799.994 205.2 800H494.8C523.239 799.994 550.826 790.29 573.006 772.492C595.186 754.693 610.634 729.862 616.8 702.1L623.35 672.6C661.596 679.753 701.125 671.765 733.593 650.322C766.06 628.879 788.925 595.659 797.36 557.675C805.795 519.691 799.141 479.916 778.801 446.746C758.462 413.576 726.029 389.607 688.35 379.9L699.4 330.4C700.208 326.747 700.186 322.96 699.336 319.317C698.485 315.674 696.828 312.269 694.487 309.351C692.145 306.434 689.179 304.079 685.806 302.461C682.434 300.842 678.741 300.001 675 300H25ZM650 625C644.709 625 639.426 624.582 634.2 623.75L677.55 428.85C700.675 435.548 720.609 450.359 733.696 470.568C746.782 490.776 752.142 515.025 748.794 538.866C745.445 562.707 733.612 584.542 715.465 600.363C697.318 616.184 674.075 624.932 650 625ZM132 691.25L56.15 350H643.85L568 691.25C564.303 707.909 555.035 722.81 541.726 733.491C528.418 744.172 511.865 749.996 494.8 750H205.2C188.135 749.996 171.582 744.172 158.274 733.491C144.965 722.81 135.697 707.909 132 691.25Z" fill="#262626"/>
<path d="M220 40L219.85 40.2L219.15 41.15C215.522 46.1626 212.118 51.3344 208.95 56.65C206.313 60.9427 203.959 65.4021 201.9 70C200.6 73 200.2 74.6 200.05 75.15V75.35C200.615 79.7729 202.17 84.0114 204.6 87.75C208.35 94.4 213.5 101.35 220 110L220.5 110.6C226.4 118.5 233.5 127.95 239 137.75C244.6 147.75 250 160.5 250 175C250 184.4 246.75 193.4 244.05 199.7C241.115 206.382 237.741 212.863 233.95 219.1C230.003 225.641 225.783 232.014 221.3 238.2L220.4 239.45L220.15 239.85L220.05 239.95C216.078 245.261 210.16 248.777 203.596 249.724C197.032 250.671 190.361 248.972 185.05 245C179.739 241.028 176.223 235.11 175.276 228.546C174.329 221.982 176.028 215.311 180 210L180.15 209.8L180.85 208.85C184.479 203.838 187.883 198.666 191.05 193.35C193.723 189.078 196.08 184.616 198.1 180C199.4 177 199.8 175.4 199.95 174.85C199.43 170.362 197.89 166.052 195.45 162.25C190.769 154.518 185.609 147.087 180 140L179.5 139.4C172.756 130.757 166.577 121.688 161 112.25C154.19 100.986 150.401 88.1562 150 75C150 65.6 153.25 56.6 155.95 50.3C158.9 43.4 162.65 36.6 166.05 30.9C169.997 24.3587 174.217 17.9864 178.7 11.8L179.95 10.05C183.922 4.73904 189.84 1.22332 196.404 0.276263C202.968 -0.670796 209.639 1.02838 214.95 5C220.261 8.97162 223.777 14.8903 224.724 21.4541C225.671 28.0179 223.972 34.689 220 40ZM370 40L369.85 40.2L369.15 41.15C365.522 46.1626 362.118 51.3344 358.95 56.65C356.313 60.9427 353.959 65.4021 351.9 70C350.6 73 350.2 74.6 350.05 75.15V75.35C350.615 79.7729 352.17 84.0114 354.6 87.75C358.35 94.4 363.5 101.35 370 110L370.5 110.6C376.4 118.5 383.5 127.95 389 137.75C394.6 147.75 400 160.5 400 175C400 184.4 396.75 193.4 394.05 199.7C391.115 206.382 387.741 212.863 383.95 219.1C380.003 225.641 375.783 232.014 371.3 238.2L370.4 239.45L370.15 239.85L370.05 239.95C366.078 245.261 360.16 248.777 353.596 249.724C347.032 250.671 340.361 248.972 335.05 245C329.739 241.028 326.223 235.11 325.276 228.546C324.329 221.982 326.028 215.311 330 210L330.15 209.8L330.85 208.85C334.479 203.838 337.883 198.666 341.05 193.35C343.723 189.078 346.08 184.616 348.1 180C349.4 177 349.8 175.4 349.95 174.85C349.43 170.362 347.89 166.052 345.45 162.25C340.769 154.518 335.609 147.087 330 140L329.5 139.4C322.756 130.757 316.577 121.688 311 112.25C304.19 100.986 300.401 88.1562 300 75C300 65.6 303.25 56.6 305.95 50.3C308.9 43.4 312.65 36.6 316.05 30.9C319.997 24.3587 324.217 17.9864 328.7 11.8L329.95 10.05C333.922 4.73904 339.84 1.22332 346.404 0.276263C352.968 -0.670796 359.639 1.02838 364.95 5C370.261 8.97162 373.777 14.8903 374.724 21.4541C375.671 28.0179 373.972 34.689 370 40ZM520 40L519.85 40.2L519.15 41.15C515.517 46.1592 512.113 51.3312 508.95 56.65C506.315 60.9434 503.96 65.4027 501.9 70C500.6 73 500.2 74.6 500.05 75.15V75.35C500.615 79.7729 502.17 84.0114 504.6 87.75C508.35 94.4 513.5 101.35 520 110L520.5 110.6C526.4 118.5 533.5 127.95 539 137.75C544.6 147.75 550 160.5 550 175C550 184.4 546.75 193.4 544.05 199.7C541.13 206.39 537.756 212.871 533.95 219.1C530.023 225.642 525.819 232.015 521.35 238.2L520.4 239.45L520.15 239.85L520.05 239.95C516.078 245.261 510.16 248.777 503.596 249.724C497.032 250.671 490.361 248.972 485.05 245C479.739 241.028 476.223 235.11 475.276 228.546C474.329 221.982 476.028 215.311 480 210L480.15 209.8L480.85 208.85C484.479 203.838 487.883 198.666 491.05 193.35C493.723 189.078 496.08 184.616 498.1 180C499.4 177 499.8 175.4 499.95 174.85C499.43 170.362 497.89 166.052 495.45 162.25C490.769 154.518 485.609 147.087 480 140L479.5 139.4C472.756 130.757 466.577 121.688 461 112.25C454.19 100.986 450.401 88.1562 450 75C450 65.6 453.25 56.6 455.95 50.3C458.9 43.4 462.65 36.6 466.05 30.9C469.997 24.3587 474.217 17.9864 478.7 11.8L479.95 10.05C483.922 4.73904 489.84 1.22332 496.404 0.276263C502.968 -0.670796 509.639 1.02838 514.95 5C520.261 8.97162 523.777 14.8903 524.724 21.4541C525.671 28.0179 523.972 34.689 520 40Z" fill="#262626"/>
</g>
</g>
<defs>
<clipPath id="clip0_1_2">
<rect width="800" height="800" fill="white"/>
</clipPath>
<clipPath id="clip1_1_2">
<rect width="800" height="800" fill="white"/>
</clipPath>
</defs>
</svg>
