<svg width="800" height="800" viewBox="0 0 800 800" fill="none" xmlns="http://www.w3.org/2000/svg">
<g clip-path="url(#clip0_1_2)">
<path d="M50 125C50 105.109 57.9018 86.0322 71.967 71.967C86.0322 57.9018 105.109 50 125 50H275C294.891 50 313.968 57.9018 328.033 71.967C342.098 86.0322 350 105.109 350 125V275C350 294.891 342.098 313.968 328.033 328.033C313.968 342.098 294.891 350 275 350H125C105.109 350 86.0322 342.098 71.967 328.033C57.9018 313.968 50 294.891 50 275V125ZM125 100C118.37 100 112.011 102.634 107.322 107.322C102.634 112.011 100 118.37 100 125V275C100 281.63 102.634 287.989 107.322 292.678C112.011 297.366 118.37 300 125 300H275C281.63 300 287.989 297.366 292.678 292.678C297.366 287.989 300 281.63 300 275V125C300 118.37 297.366 112.011 292.678 107.322C287.989 102.634 281.63 100 275 100H125ZM450 125C450 105.109 457.902 86.0322 471.967 71.967C486.032 57.9018 505.109 50 525 50H675C694.891 50 713.968 57.9018 728.033 71.967C742.098 86.0322 750 105.109 750 125V275C750 294.891 742.098 313.968 728.033 328.033C713.968 342.098 694.891 350 675 350H525C505.109 350 486.032 342.098 471.967 328.033C457.902 313.968 450 294.891 450 275V125ZM525 100C518.37 100 512.011 102.634 507.322 107.322C502.634 112.011 500 118.37 500 125V275C500 281.63 502.634 287.989 507.322 292.678C512.011 297.366 518.37 300 525 300H675C681.63 300 687.989 297.366 692.678 292.678C697.366 287.989 700 281.63 700 275V125C700 118.37 697.366 112.011 692.678 107.322C687.989 102.634 681.63 100 675 100H525ZM50 525C50 505.109 57.9018 486.032 71.967 471.967C86.0322 457.902 105.109 450 125 450H275C294.891 450 313.968 457.902 328.033 471.967C342.098 486.032 350 505.109 350 525V675C350 694.891 342.098 713.968 328.033 728.033C313.968 742.098 294.891 750 275 750H125C105.109 750 86.0322 742.098 71.967 728.033C57.9018 713.968 50 694.891 50 675V525ZM125 500C118.37 500 112.011 502.634 107.322 507.322C102.634 512.011 100 518.37 100 525V675C100 681.63 102.634 687.989 107.322 692.678C112.011 697.366 118.37 700 125 700H275C281.63 700 287.989 697.366 292.678 692.678C297.366 687.989 300 681.63 300 675V525C300 518.37 297.366 512.011 292.678 507.322C287.989 502.634 281.63 500 275 500H125ZM450 525C450 505.109 457.902 486.032 471.967 471.967C486.032 457.902 505.109 450 525 450H675C694.891 450 713.968 457.902 728.033 471.967C742.098 486.032 750 505.109 750 525V675C750 694.891 742.098 713.968 728.033 728.033C713.968 742.098 694.891 750 675 750H525C505.109 750 486.032 742.098 471.967 728.033C457.902 713.968 450 694.891 450 675V525ZM525 500C518.37 500 512.011 502.634 507.322 507.322C502.634 512.011 500 518.37 500 525V675C500 681.63 502.634 687.989 507.322 692.678C512.011 697.366 518.37 700 525 700H675C681.63 700 687.989 697.366 692.678 692.678C697.366 687.989 700 681.63 700 675V525C700 518.37 697.366 512.011 692.678 507.322C687.989 502.634 681.63 500 675 500H525Z" fill="#262626"/>
</g>
<defs>
<clipPath id="clip0_1_2">
<rect width="800" height="800" fill="white"/>
</clipPath>
</defs>
</svg>
