<svg width="800" height="800" viewBox="0 0 800 800" fill="none" xmlns="http://www.w3.org/2000/svg">
<g clip-path="url(#clip0_1_2)">
<path d="M674.9 39.75L682.35 32.3C687.957 26.6958 694.614 22.251 701.939 19.2193C709.264 16.1876 717.115 14.6284 725.043 14.6308C732.97 14.6331 740.82 16.1969 748.144 19.2329C755.467 22.2688 762.121 26.7176 767.725 32.325C773.329 37.9324 777.774 44.5888 780.806 51.914C783.837 59.2392 785.397 67.0899 785.394 75.0177C785.392 82.9455 783.828 90.7952 780.792 98.1186C777.756 105.442 773.307 112.096 767.7 117.7L760.25 125.1C772.994 139.393 779.789 158.02 779.24 177.161C778.692 196.303 770.842 214.51 757.3 228.05L242.7 742.7C239.483 745.9 235.456 748.164 231.05 749.25L31.05 799.25C26.8646 800.292 22.4808 800.234 18.3246 799.081C14.1685 797.927 10.3814 795.718 7.33153 792.668C4.28164 789.619 2.07271 785.831 0.919435 781.675C-0.233835 777.519 -0.292205 773.135 0.75 768.95L50.75 568.95C51.844 564.562 54.1077 560.553 57.3 557.35L539.4 75.25C534.578 71.8565 528.713 70.2763 522.839 70.7887C516.965 71.301 511.461 73.8729 507.3 78.05L342.7 242.7C340.376 245.024 337.616 246.868 334.579 248.126C331.542 249.384 328.287 250.032 325 250.032C321.713 250.032 318.458 249.384 315.421 248.126C312.384 246.868 309.624 245.024 307.3 242.7C304.976 240.376 303.132 237.616 301.874 234.579C300.616 231.542 299.968 228.287 299.968 225C299.968 221.713 300.616 218.458 301.874 215.421C303.132 212.384 304.976 209.624 307.3 207.3L472 42.7C485.549 29.1508 503.77 21.301 522.923 20.7618C542.077 20.2225 560.71 27.0346 575 39.8C588.738 27.5219 606.515 20.7306 624.94 20.7214C643.366 20.7122 661.15 27.4857 674.9 39.75ZM642.7 78.05C638.012 73.3632 631.654 70.7303 625.025 70.7303C618.396 70.7303 612.038 73.3632 607.35 78.05L97.5 587.8L59.3 740.65L212.15 702.45L722 192.7C724.328 190.378 726.175 187.619 727.436 184.582C728.696 181.544 729.345 178.288 729.345 175C729.345 171.712 728.696 168.456 727.436 165.418C726.175 162.381 724.328 159.622 722 157.3L642.7 78.05Z" fill="#262626"/>
</g>
<defs>
<clipPath id="clip0_1_2">
<rect width="800" height="800" fill="white"/>
</clipPath>
</defs>
</svg>
