<svg width="800" height="800" viewBox="0 0 800 800" fill="none" xmlns="http://www.w3.org/2000/svg">
<g clip-path="url(#clip0_1_2)">
<path d="M125 50C105.109 50 86.0322 57.9018 71.967 71.967C57.9018 86.0322 50 105.109 50 125V675C50 694.891 57.9018 713.968 71.967 728.033C86.0322 742.098 105.109 750 125 750H429.3C449.185 749.982 468.248 742.069 482.3 728L728.05 482.3C742.101 468.24 749.996 449.177 750 429.3V125C750 105.109 742.098 86.0322 728.033 71.967C713.968 57.9018 694.891 50 675 50H125ZM100 125C100 118.37 102.634 112.011 107.322 107.322C112.011 102.634 118.37 100 125 100H675C681.63 100 687.989 102.634 692.678 107.322C697.366 112.011 700 118.37 700 125V400H475C455.109 400 436.032 407.902 421.967 421.967C407.902 436.032 400 455.109 400 475V700H125C118.37 700 112.011 697.366 107.322 692.678C102.634 687.989 100 681.63 100 675V125ZM450 689.65V475C450 468.37 452.634 462.011 457.322 457.322C462.011 452.634 468.37 450 475 450H689.65L450 689.65Z" fill="#262626"/>
</g>
<defs>
<clipPath id="clip0_1_2">
<rect width="800" height="800" fill="white"/>
</clipPath>
</defs>
</svg>
